<?xml version="1.0" standalone="no"?>
<!DOCTYPE svg PUBLIC "-//W3C//DTD SVG 20010904//EN"
 "http://www.w3.org/TR/2001/REC-SVG-20010904/DTD/svg10.dtd">
<svg version="1.0" xmlns="http://www.w3.org/2000/svg"
 width="1024.000000pt" height="1024.000000pt" viewBox="0 0 1024.000000 1024.000000"
 preserveAspectRatio="xMidYMid meet">
<metadata>
Created by potrace 1.14, written by Peter Selinger 2001-2017
</metadata>
<g transform="translate(0.000000,1024.000000) scale(0.100000,-0.100000)"
fill="#000000" stroke="none">
<path d="M0 5120 l0 -5120 5120 0 5120 0 0 5120 0 5120 -5120 0 -5120 0 0
-5120z m8860 3685 l0 -975 165 0 165 0 0 -220 c0 -121 -2 -220 -3 -220 -2 0
-48 7 -103 15 -175 26 -411 18 -604 -21 -208 -43 -459 -153 -640 -282 -115
-81 -297 -256 -390 -372 -212 -266 -374 -606 -473 -995 -85 -331 -136 -736
-138 -1100 0 -82 -6 -154 -13 -173 -24 -67 -71 -100 -314 -218 -245 -120 -252
-125 -252 -193 0 -15 9 -43 19 -64 l19 -37 -417 0 -416 0 -81 103 c-88 111
-272 361 -347 471 l-47 68 0 1035 0 1034 64 89 c179 249 272 526 283 845 14
390 -76 700 -286 983 l-60 81 -3 88 -3 88 -100 5 -100 5 -76 52 c-267 182
-601 295 -1019 347 -265 33 -478 39 -1177 33 l-683 -5 0 254 0 254 3515 0
3515 0 0 -975z m-7081 439 l31 -6 0 -209 0 -209 241 0 c216 0 241 -2 235 -16
-3 -9 -6 -45 -6 -80 l0 -64 -394 0 -395 0 -32 66 c-39 78 -100 135 -175 163
-50 19 -245 52 -399 67 -52 5 -75 13 -91 29 -28 28 -40 101 -25 148 21 63 32
67 228 83 384 30 711 42 782 28z m1512 -292 c64 -12 160 -35 212 -52 198 -63
231 -59 -500 -60 -420 0 -663 4 -663 10 0 5 14 25 31 45 60 68 172 85 544 80
210 -2 282 -6 376 -23z m1526 -188 c37 -31 89 -80 116 -109 l47 -53 0 -947 0
-948 -54 -66 c-77 -95 -160 -176 -241 -233 l-70 -49 -3 1150 -2 1151 -291 0
-291 0 -42 35 c-24 19 -74 55 -112 80 l-68 45 471 0 471 0 69 -56z m-3318
-196 c7 -40 16 -134 22 -208 12 -165 7 -4634 -5 -4668 -8 -22 -10 -22 -202
-22 l-194 0 0 105 0 105 130 0 130 0 0 2380 0 2380 54 0 53 0 12 -72z m2560 5
c295 -296 439 -734 403 -1226 -35 -467 -179 -785 -457 -1006 -176 -140 -413
-222 -730 -251 -135 -12 -534 -12 -712 0 -167 11 -210 22 -226 58 -9 20 -13
324 -15 1260 l-3 1232 837 0 836 0 67 -67z m5304 -1242 c181 -62 326 -180 394
-319 25 -51 28 -68 28 -157 0 -92 -2 -104 -30 -153 -74 -134 -238 -218 -375
-192 -65 12 -82 24 -135 92 l-45 56 0 346 0 346 53 0 c30 0 79 -9 110 -19z
m-706 -331 c154 -49 309 -149 454 -290 l79 -77 0 -496 0 -497 -165 0 -165 0
-1 -712 c-1 -407 -5 -695 -9 -671 -5 23 -16 53 -26 67 l-16 26 -584 0 c-665 0
-644 -2 -665 72 -14 53 -6 874 10 1068 30 343 63 566 116 775 69 277 145 425
290 570 93 93 160 136 263 170 114 37 296 35 419 -5z m-4067 -1250 c0 -297 -2
-540 -4 -540 -8 0 -417 661 -437 705 -13 29 -19 61 -17 88 l3 42 150 75 c83
41 182 96 220 122 39 25 73 47 78 47 4 1 7 -242 7 -539z m-1555 16 c118 -24
235 -85 310 -161 71 -73 209 -278 575 -855 289 -456 423 -659 542 -823 43 -59
78 -110 78 -112 0 -3 -497 -5 -1104 -5 l-1104 0 -7 193 c-3 105 -5 530 -3 942
2 586 6 755 16 772 33 58 125 73 417 68 133 -2 227 -8 280 -19z m1702 -848
c61 -90 140 -211 177 -270 l66 -108 0 -305 0 -305 236 0 236 0 102 -103 c55
-56 169 -171 251 -256 350 -357 510 -464 815 -541 51 -13 90 -44 90 -72 0 -20
-57 -60 -115 -79 -63 -22 -513 -19 -680 4 -241 33 -408 85 -576 182 -182 104
-384 273 -551 461 -103 116 -218 258 -218 268 0 3 9 6 20 6 20 0 20 7 20 646
0 368 4 643 9 640 5 -3 58 -79 118 -168z m4123 -848 l0 -120 -54 0 -54 0 28
30 c34 37 70 127 70 175 0 19 2 35 5 35 3 0 5 -54 5 -120z m-1307 -222 c-2
-46 -5 -274 -7 -508 -3 -309 -7 -435 -17 -462 l-12 -38 -323 0 -323 0 -13 38
c-9 26 -14 176 -18 532 -3 272 -9 501 -13 508 -7 9 68 12 360 12 l368 0 -2
-82z m-5197 -284 c30 -123 54 -174 108 -232 78 -83 190 -122 470 -163 145 -21
159 -25 174 -48 24 -35 21 -129 -5 -172 -17 -30 -24 -34 -59 -33 -1000 27
-1118 28 -1672 15 -312 -8 -582 -14 -601 -15 -26 -1 -38 5 -54 26 -27 36 -34
122 -14 169 l15 36 148 17 c316 37 421 67 508 147 58 53 95 123 121 230 9 35
21 76 27 92 l11 27 400 -2 400 -3 23 -91z m4484 -1064 l0 -330 -895 0 -895 0
0 330 0 330 895 0 895 0 0 -330z m1140 45 l0 -285 95 0 95 0 0 -135 0 -135
-155 0 -155 0 0 90 0 90 -155 0 -155 0 0 330 0 330 215 0 215 0 0 -285z m-451
-437 c9 -37 16 -197 21 -513 7 -424 9 -466 29 -540 35 -132 88 -189 202 -219
31 -8 152 -22 269 -32 l212 -18 15 -30 c24 -46 14 -150 -17 -180 l-25 -24
-185 8 c-530 24 -1149 23 -1754 -4 -41 -2 -68 39 -74 109 -5 61 11 112 37 119
9 3 85 14 169 26 277 38 346 86 389 269 13 53 17 156 20 521 4 364 7 465 19
508 l15 52 323 0 323 0 12 -52z m-4099 -953 l0 -705 -720 0 -720 0 0 705 0
705 720 0 720 0 0 -705z"/>
</g>
</svg>
